<?xml version="1.0" encoding="utf-8"?>
<!-- Generator: Adobe Illustrator 27.0.0, SVG Export Plug-In . SVG Version: 6.00 Build 0)  -->
<svg version="1.0" id="Layer_1" xmlns="http://www.w3.org/2000/svg" xmlns:xlink="http://www.w3.org/1999/xlink" x="0px" y="0px"
	 viewBox="0 0 524 524" style="enable-background:new 0 0 524 524;" xml:space="preserve">
<style type="text/css">
	.st0{fill:#ECECEC;}
	.st1{fill:#57A3FF;}
	.st2{fill:#A4C9FB;}
	.st3{fill:#5C9BF0;}
	.st4{fill:#5FA0F8;}
	.st5{fill:#007CFF;}
	.st6{opacity:0.3;fill:#FFFFFF;}
	.st7{opacity:0.4;fill:#FFFFFF;}
	.st8{fill:#FFFFFF;}
	.st9{opacity:0.1;}
	.st10{opacity:0.8;}
	.st11{opacity:0.6;}
	.st12{fill:#1A2E35;}
	.st13{opacity:0.2;}
	.st14{opacity:0.7;fill:#FFFFFF;}
	.st15{opacity:0.5;fill:#FFFFFF;}
	.st16{opacity:0.2;fill:#FFFFFF;}
	.st17{fill:#FF8B7B;}
	.st18{opacity:0.4;}
	.st19{opacity:0.6;fill:#007CFF;}
	.st20{opacity:0.6;fill:#FFFFFF;}
</style>
<g>
	<rect x="430.4" y="419.3" class="st0" width="33.1" height="0.2"/>
	<rect x="336.1" y="422" class="st0" width="8.7" height="0.2"/>
	<rect x="410.2" y="410" class="st0" width="19.2" height="0.2"/>
	<rect x="66.1" y="411.6" class="st0" width="43.2" height="0.2"/>
	<rect x="118.2" y="411.6" class="st0" width="6.3" height="0.2"/>
	<rect x="145.1" y="415.9" class="st0" width="93.7" height="0.2"/>
	<g>
		<g>
			<path class="st1" d="M252,358.6H58.9c-3.1,0-5.7-2.6-5.7-5.7V81.4c0-3.1,2.6-5.7,5.7-5.7H252c3.1,0,5.7,2.6,5.7,5.7v271.4
				C257.7,356,255.2,358.6,252,358.6z M58.9,76c-3,0-5.5,2.4-5.5,5.5v271.4c0,3,2.4,5.5,5.5,5.5H252c3,0,5.5-2.4,5.5-5.5V81.4
				c0-3-2.4-5.5-5.5-5.5H58.9z"/>
			<path class="st1" d="M468.3,358.6H275.2c-3.1,0-5.7-2.6-5.7-5.7V81.4c0-3.1,2.6-5.7,5.7-5.7h193.1c3.1,0,5.7,2.6,5.7,5.7v271.4
				C474,356,471.5,358.6,468.3,358.6z M275.2,76c-3,0-5.5,2.4-5.5,5.5v271.4c0,3,2.4,5.5,5.5,5.5h193.1c3,0,5.5-2.4,5.5-5.5V81.4
				c0-3-2.4-5.5-5.5-5.5H275.2z"/>
		</g>
	</g>
	<rect x="13.6" y="403.2" class="st0" width="500" height="0.2"/>
	<g>
		<g>
			<path class="st1" d="M132.9,335.5c-0.8-9.7-10.7-13.3-22.4-12.3c-11.7,1-20.8,6.3-19.9,16L132.9,335.5z"/>
			<path class="st1" d="M110.2,318.8c5.4-0.5,7.2-5.1,6.7-10.5c-0.5-5.4-3-9.6-8.4-9.2c-5.4,0.5-7.2,5.1-6.7,10.5
				C102.3,315.1,104.8,319.3,110.2,318.8z"/>
		</g>
	</g>
	<g>
		<g>
			<path class="st2" d="M353.7,129.7c0.3,3-2,5.6-4.9,5.9c-3,0.3-5.6-2-5.9-4.9c-0.3-3,2-5.6,4.9-5.9
				C350.8,124.5,353.5,126.7,353.7,129.7z"/>
			<path class="st2" d="M383.8,127.1c0.3,3-2,5.6-4.9,5.9c-3,0.3-5.6-2-5.9-4.9c-0.3-3,2-5.6,4.9-5.9
				C380.9,121.9,383.5,124.1,383.8,127.1z"/>
			<path class="st2" d="M413.9,124.5c0.3,3-2,5.6-4.9,5.9c-3,0.3-5.6-2-5.9-4.9c-0.3-3,2-5.6,4.9-5.9
				C411,119.3,413.6,121.5,413.9,124.5z"/>
			<path class="st2" d="M356.4,160.4c0.3,3-2,5.6-4.9,5.9c-3,0.3-5.6-2-5.9-4.9c-0.3-3,2-5.6,4.9-5.9
				C353.5,155.2,356.1,157.4,356.4,160.4z"/>
			<path class="st2" d="M386.5,157.8c0.3,3-2,5.6-4.9,5.9c-3,0.3-5.6-2-5.9-4.9c-0.3-3,2-5.6,4.9-5.9
				C383.6,152.6,386.2,154.8,386.5,157.8z"/>
			<path class="st2" d="M416.5,155.1c0.3,3-2,5.6-4.9,5.9c-3,0.3-5.6-2-5.9-4.9c-0.3-3,2-5.6,4.9-5.9
				C413.6,149.9,416.3,152.1,416.5,155.1z"/>
			<path class="st2" d="M359.1,191c0.3,3-2,5.6-4.9,5.9c-3,0.3-5.6-2-5.9-4.9c-0.3-3,2-5.6,4.9-5.9S358.8,188,359.1,191z"/>
			<path class="st2" d="M389.2,188.4c0.3,3-2,5.6-4.9,5.9c-3,0.3-5.6-2-5.9-4.9c-0.3-3,2-5.6,4.9-5.9
				C386.3,183.2,388.9,185.4,389.2,188.4z"/>
			<path class="st2" d="M419.2,185.8c0.3,3-2,5.6-4.9,5.9s-5.6-2-5.9-4.9s2-5.6,4.9-5.9C416.3,180.6,419,182.8,419.2,185.8z"/>
		</g>
		<g>
			<path class="st3" d="M412.7,187.5l-61.8,5.4l54.8-66.6l-56.1,4.9c-0.7,0.1-1.2-0.4-1.3-1.1l0,0c-0.1-0.7,0.4-1.2,1.1-1.3
				l61.8-5.4l-54.8,66.6l56.1-4.9c0.7-0.1,1.2,0.4,1.3,1.1l0,0C413.9,186.9,413.4,187.5,412.7,187.5z"/>
		</g>
	</g>
	<g>
		<path class="st4" d="M413.7,306.4c-0.2-0.6-0.7-1-1.4-1.1c-2.8-0.2-5.2-1.2-7.1-3.2c-2.5-2.5-3.9-6.3-4.2-10.7
			c0-0.8-0.7-1.5-1.6-1.5h0c-0.9,0-1.7,0.8-1.6,1.7c0.3,5.3,2.1,9.8,5.1,12.8c2.4,2.4,5.4,3.8,8.9,4.1c0.1,0,0.1,0,0.2,0
			C413.2,308.6,414.1,307.5,413.7,306.4z"/>
		<g>
			<g>
				<path class="st4" d="M410.5,325.6c-13.3-1.2-22.8-10.2-25.8-24.3c-0.2-0.9,0.4-1.8,1.3-1.9l0,0c0.8-0.1,1.7,0.4,1.8,1.2
					c2.7,12.7,11.2,20.8,23,21.8c12.9,1.1,26.8-7.4,29.3-28.8c0.1-0.9,0.9-1.5,1.7-1.4l0,0c0.9,0.1,1.6,0.9,1.5,1.8
					C440.8,314.1,427.6,327.1,410.5,325.6z"/>
			</g>
			<g>
				<path class="st4" d="M385.5,287.2L385.5,287.2c-0.9-0.1-1.6-0.9-1.5-1.8c2.4-20.2,15.7-33.1,32.7-31.7c15,1.3,25,12.5,26.6,29.4
					c0.1,0.9-0.6,1.7-1.5,1.7l0,0c-0.9,0.1-1.6-0.6-1.7-1.5c-1.4-15.2-10.4-25.3-23.7-26.4c-12.9-1.1-26.8,7.4-29.3,28.8
					C387.1,286.7,386.3,287.3,385.5,287.2z"/>
			</g>
			<g>
				<path class="st4" d="M411.1,317c-2.5-0.2-4.8-0.8-6.9-1.7c-0.9-0.4-1.2-1.4-0.8-2.2l0,0c0.4-0.7,1.3-1,2-0.7
					c2,0.9,4.2,1.4,6.6,1.5c9.8,0.6,20.1-6.4,21.2-23.1c0.6-10.3-2.9-18.7-9.5-22.7c-0.7-0.4-1-1.3-0.6-2.1l0,0
					c0.4-0.8,1.5-1.2,2.3-0.7c7.6,4.6,11.7,14,11,25.6c-1,16.2-11.1,26.9-24.5,26.1C411.6,317,411.4,317,411.1,317z"/>
			</g>
			<g>
				<path class="st4" d="M396.9,307c-0.8,0.5-1.8,0.3-2.3-0.5c-2.8-4.9-4.2-11.2-3.8-18c0.9-15.5,10.2-26,22.8-26.2
					c0.9,0,1.7,0.8,1.6,1.7l0,0c0,0.8-0.7,1.5-1.6,1.5c-9.3,0.2-18.7,7.2-19.7,23.2c-0.4,6.2,0.8,11.9,3.3,16.3
					C397.8,305.6,397.6,306.6,396.9,307L396.9,307z"/>
			</g>
			<g>
				<path class="st4" d="M418.7,305.7L418.7,305.7c-0.3-0.7,0-1.6,0.7-2c4.2-2.5,6.8-7.8,6.8-14.3c0-5.1-1.5-9.5-4.2-12.2
					c-2.1-2.1-4.8-3.2-8.1-3.2c-4.9,0-8.9,2.7-11.1,7.5c-0.3,0.7-1.2,1.1-2,0.8l0,0c-0.9-0.3-1.3-1.3-0.9-2.2
					c2.7-5.8,7.9-9.3,14-9.3c4.1,0,7.7,1.4,10.4,4.1c3.3,3.4,5.2,8.5,5.1,14.5c-0.1,7.6-3.2,13.9-8.4,17
					C420.2,307,419.1,306.6,418.7,305.7z"/>
			</g>
			<g>
				<path class="st4" d="M407.2,294c-0.9,0.4-1.9-0.2-2.2-1.1c-0.1-0.4-0.2-0.9-0.3-1.3c-0.9-6,2.3-11.2,7.5-12.1
					c2.7-0.5,5,0.1,6.9,1.8c0.7,0.7,0.7,1.8-0.1,2.4l-0.1,0.1c-0.6,0.4-1.4,0.3-2-0.1c-1.1-0.9-2.5-1.3-4.1-1
					c-3.9,0.7-5.4,4.8-4.9,8.5c0.1,0.4,0.1,0.7,0.2,1C408.4,292.8,408,293.7,407.2,294L407.2,294z"/>
			</g>
			<g>
				<path class="st4" d="M412.5,300.1C412.5,300.1,412.5,300.1,412.5,300.1c-1.1-0.1-1.7-1.3-1.1-2.3l0.1-0.2
					c0.3-0.5,0.8-0.7,1.4-0.7c0.5,0,1,0,1.5-0.1c3.4-0.6,5-3.8,5-7.1c0-0.8,0.6-1.5,1.4-1.6l0,0c0.9-0.1,1.8,0.6,1.8,1.5
					c0.1,5.2-3,9.5-7.6,10.4C414.1,300.1,413.3,300.2,412.5,300.1z"/>
			</g>
			<g>
				<path class="st4" d="M413.2,294.2c-1.7-0.1-3-1.3-3.4-2.9c-0.3-0.9,0.5-1.9,1.5-1.8l0.4,0c0.6,0,1,0.4,1.2,1
					c0.1,0.3,0.3,0.5,0.6,0.5c0.8,0.1,0.9-1,0.9-1.3c0-0.2,0-0.8-0.2-1.1c-0.3-0.4-0.4-0.8-0.4-1.2l0,0c0.1-1.4,1.9-2,2.8-0.9
					c0.7,0.9,1.1,2.1,1,3.5C417.4,292.7,415.5,294.4,413.2,294.2z"/>
			</g>
			<g>
				<path class="st4" d="M383.2,258.4L383.2,258.4c-0.9-0.1-1.5-0.9-1.5-1.7l1.2-13.9l13.9,1.2c0.9,0.1,1.5,0.9,1.5,1.7l0,0
					c-0.1,0.9-0.9,1.5-1.7,1.5l-10.7-0.9l-0.9,10.7C384.8,257.8,384,258.5,383.2,258.4z"/>
			</g>
			<g>
				<path class="st4" d="M449.1,264.2L449.1,264.2c-0.9-0.1-1.5-0.9-1.5-1.7l0.9-10.7l-10.7-0.9c-0.9-0.1-1.5-0.9-1.5-1.7l0,0
					c0.1-0.9,0.9-1.5,1.7-1.5l13.9,1.2l-1.2,13.9C450.7,263.6,450,264.3,449.1,264.2z"/>
			</g>
			<g>
				<path class="st4" d="M444.2,338.7l-13.9-1.2c-0.9-0.1-1.5-0.9-1.5-1.7l0,0c0.1-0.9,0.9-1.5,1.7-1.5l10.7,0.9l0.9-10.7
					c0.1-0.9,0.9-1.5,1.7-1.5l0,0c0.9,0.1,1.5,0.9,1.5,1.7L444.2,338.7z"/>
			</g>
			<g>
				<path class="st4" d="M388.9,333.9l-13.9-1.2l1.2-13.9c0.1-0.9,0.9-1.5,1.7-1.5l0,0c0.9,0.1,1.5,0.9,1.5,1.7l-0.9,10.7l10.7,0.9
					c0.9,0.1,1.5,0.9,1.5,1.7l0,0C390.6,333.3,389.8,334,388.9,333.9z"/>
			</g>
		</g>
	</g>
	<g>
		<g>
			<path class="st1" d="M88.3,303.9L88.3,303.9c-0.5,0-1-0.4-1.1-0.9l-0.7-8.5l8.5-0.7c0.5,0,1,0.4,1.1,0.9l0,0c0,0.5-0.4,1-0.9,1.1
				l-6.6,0.6l0.6,6.6C89.3,303.4,88.9,303.8,88.3,303.9z"/>
		</g>
	</g>
	<g>
		<g>
			<path class="st1" d="M128.9,300.3L128.9,300.3c-0.5,0-1-0.4-1.1-0.9l-0.6-6.6l-6.6,0.6c-0.5,0-1-0.4-1.1-0.9l0,0
				c0-0.5,0.4-1,0.9-1.1l8.5-0.7l0.7,8.5C129.8,299.8,129.4,300.3,128.9,300.3z"/>
		</g>
	</g>
	<g>
		<g>
			<path class="st1" d="M133.1,337.1l-8.5,0.7c-0.5,0-1-0.4-1.1-0.9l0,0c0-0.5,0.4-1,0.9-1.1l6.6-0.6l-0.6-6.6c0-0.5,0.4-1,0.9-1.1
				l0,0c0.5,0,1,0.4,1.1,0.9L133.1,337.1z"/>
		</g>
	</g>
	<g>
		<g>
			<path class="st1" d="M99.1,340l-8.5,0.7l-0.7-8.5c0-0.5,0.4-1,0.9-1.1l0,0c0.5,0,1,0.4,1.1,0.9l0.6,6.6l6.6-0.6
				c0.5,0,1,0.4,1.1,0.9l0,0C100.1,339.5,99.7,340,99.1,340z"/>
		</g>
	</g>
	<path class="st1" d="M128.2,161.7l-32.6,2.9l-0.7-7.6c-0.7-7.9,5.2-14.9,13.1-15.6c7.9-0.7,14.9,5.2,15.6,13.1l0.4,4.4l4.7-0.4
		l-0.4-4.4c-0.9-10.5-10.2-18.3-20.7-17.4c-10.5,0.9-18.3,10.2-17.4,20.7l0.7,7.7c-3.8,0.7-6.5,4.2-6.2,8.2l2.3,26.6
		c0.4,4.2,4.1,7.3,8.3,7l36.5-3.2c4.2-0.4,7.3-4.1,7-8.3l-2.3-26.6C136.1,164.5,132.4,161.3,128.2,161.7z M114.3,182.2l0.8,9.2
		c0.1,1.5-1,2.8-2.5,3c-1.5,0.1-2.8-1-3-2.5l-0.8-9.2c-1.2-0.7-2.1-2-2.2-3.5c-0.2-2.5,1.7-4.8,4.2-5c2.5-0.2,4.8,1.7,5,4.2
		C116,179.9,115.4,181.3,114.3,182.2z"/>
	<g>
		<g>
			<path class="st1" d="M184.1,177.2l-3.3-5.4c-1.8,0.2-3.2,0.2-5,0l-3.3,5.4l-0.6-0.2c-2.1-0.6-4.2-1.4-6.1-2.5l-0.6-0.3l1.4-5.8
				c0.1-0.5,0.6-0.8,1.1-0.7l0,0c0.5,0.1,0.8,0.6,0.7,1.1l-1.1,4.6c1.4,0.8,2.9,1.4,4.5,1.9l3.2-5.3l0.6,0.1c1.9,0.3,3.8,0.3,5.6,0
				l0.6-0.1l3.2,5.3c1.5-0.5,3-1.1,4.5-1.9l-1.4-6l0.5-0.3c1.3-0.9,2.5-2.1,3.5-3.3c0.3-0.4,0.8-0.5,1.2-0.2l0,0
				c0.4,0.3,0.5,0.9,0.2,1.2c-1,1.2-2.1,2.4-3.4,3.3l1.5,6.1l-0.6,0.3c-1.9,1.1-4,2-6.1,2.5L184.1,177.2z M163.8,165.4
				c-0.3-0.3-0.5-0.6-0.8-1l-6.1,1.5l-0.3-0.6c-1.1-1.9-2-4-2.5-6.1l-0.2-0.6l5.4-3.3c-0.1-0.9-0.2-1.7-0.2-2.5
				c0-0.8,0.1-1.6,0.2-2.5l-5.4-3.3l0.2-0.6c0.6-2.1,1.4-4.2,2.5-6.1l0.3-0.6l6.1,1.5c1-1.3,2.2-2.5,3.6-3.6l-1.1-4.6
				c-0.1-0.5,0.2-0.9,0.6-1.1l0,0c0.5-0.1,0.9,0.2,1.1,0.6l1.4,5.8l-0.5,0.3c-1.5,1.1-2.9,2.5-4,4l-0.3,0.5l-6-1.4
				c-0.8,1.4-1.4,2.9-1.9,4.5l5.3,3.2l-0.1,0.6c-0.2,1-0.2,2-0.2,2.8c0,0.9,0.1,1.8,0.2,2.8l0.1,0.6l-5.3,3.2c0.5,1.5,1.1,3,1.9,4.5
				l6-1.4l0.3,0.5c0.3,0.5,0.7,0.9,1,1.3c0.3,0.3,0.3,0.9,0,1.2l0,0C164.7,165.8,164.2,165.8,163.8,165.4z M199.6,165.9l-2.3-0.5
				c-0.5-0.1-0.8-0.6-0.7-1.1l0,0c0.1-0.5,0.6-0.8,1.1-0.7l1,0.2c0.8-1.4,1.4-2.9,1.9-4.5l-5.3-3.2l0.1-0.6c0.2-1,0.2-2,0.2-2.8
				c0-0.9-0.1-1.8-0.2-2.8l-0.1-0.6l5.3-3.2c-0.5-1.5-1.1-3-1.9-4.5l-6,1.4l-0.3-0.5c-1.1-1.5-2.5-2.9-4-4l-0.5-0.3l1.4-6
				c-1.4-0.8-2.9-1.4-4.5-1.9l-3.2,5.3l-0.6-0.1c-1.9-0.3-3.8-0.3-5.6,0l-0.6,0.1l-3.2-5.3c-0.2,0.1-0.4,0.1-0.6,0.2
				c-0.4,0.1-0.9-0.1-1.1-0.5l0,0c-0.2-0.5,0.1-1,0.5-1.1c0.4-0.1,0.9-0.3,1.3-0.4l0.6-0.2l3.3,5.4c1.8-0.2,3.2-0.2,5,0l3.3-5.4
				l0.6,0.2c2.1,0.6,4.2,1.4,6.1,2.5l0.6,0.3l-1.5,6.1c1.3,1,2.5,2.2,3.6,3.6l6.1-1.5l0.3,0.6c1.1,1.9,2,4,2.5,6.1l0.2,0.6l-5.4,3.3
				c0.1,0.9,0.2,1.7,0.2,2.5c0,0.8-0.1,1.6-0.2,2.5l5.4,3.3l-0.2,0.6c-0.6,2.1-1.4,4.2-2.5,6.1L199.6,165.9z M178,161.4
				c-4.5-0.1-8.2-3.8-8.3-8.3c-0.1-4.5,3.2-8.3,7.6-8.8c0.5-0.1,1,0.4,1,0.9v0c0,0.4-0.3,0.8-0.8,0.9c-3.8,0.4-6.7,4.1-5.9,8.1
				c0.5,2.7,2.7,4.8,5.3,5.3c4.4,0.9,8.2-2.5,8.2-6.7c0-1.4-0.4-2.8-1.2-3.9c-0.3-0.4-0.2-0.9,0.1-1.1l0,0c0.4-0.3,1-0.3,1.3,0.2
				c1,1.4,1.5,3.1,1.5,4.9C186.8,157.6,182.8,161.5,178,161.4z"/>
		</g>
	</g>
	<g>
		<g>
			<path class="st1" d="M121.9,250.4l-2.1-3.5c-1.2,0.2-2.1,0.2-3.3,0l-2.1,3.5l-0.4-0.1c-1.4-0.4-2.7-0.9-3.9-1.6l-0.4-0.2l0.9-3.8
				c0.1-0.3,0.4-0.5,0.7-0.4l0,0c0.3,0.1,0.5,0.4,0.4,0.7l-0.7,2.9c0.9,0.5,1.9,0.9,2.9,1.2l2.1-3.4l0.4,0.1c1.2,0.2,2.4,0.2,3.6,0
				l0.4-0.1l2.1,3.4c1-0.3,2-0.7,2.9-1.2l-0.9-3.9l0.3-0.2c0.8-0.6,1.6-1.3,2.2-2.1c0.2-0.2,0.5-0.3,0.8-0.1l0,0
				c0.3,0.2,0.3,0.6,0.1,0.8c-0.6,0.8-1.4,1.5-2.2,2.1l0.9,4l-0.4,0.2c-1.2,0.7-2.6,1.3-3.9,1.6L121.9,250.4z M108.9,242.8
				c-0.2-0.2-0.4-0.4-0.5-0.6l-4,0.9l-0.2-0.4c-0.7-1.2-1.3-2.6-1.6-3.9l-0.1-0.4l3.5-2.1c-0.1-0.6-0.1-1.1-0.1-1.6
				c0-0.5,0-1,0.1-1.6l-3.5-2.1l0.1-0.4c0.4-1.4,0.9-2.7,1.6-3.9l0.2-0.4l4,0.9c0.7-0.9,1.4-1.6,2.3-2.3l-0.7-3
				c-0.1-0.3,0.1-0.6,0.4-0.7l0,0c0.3-0.1,0.6,0.1,0.7,0.4l0.9,3.7l-0.3,0.2c-1,0.7-1.9,1.6-2.6,2.6l-0.2,0.3l-3.9-0.9
				c-0.5,0.9-0.9,1.9-1.2,2.9l3.4,2.1l-0.1,0.4c-0.1,0.7-0.2,1.3-0.2,1.8c0,0.6,0.1,1.2,0.2,1.8l0.1,0.4l-3.4,2.1
				c0.3,1,0.7,2,1.2,2.9l3.9-0.9l0.2,0.3c0.2,0.3,0.4,0.6,0.7,0.8c0.2,0.2,0.2,0.6,0,0.8l0,0C109.4,243,109.1,243,108.9,242.8z
				 M132,243.1l-1.5-0.3c-0.3-0.1-0.5-0.4-0.4-0.7l0,0c0.1-0.3,0.4-0.5,0.7-0.4l0.6,0.2c0.5-0.9,0.9-1.9,1.2-2.9l-3.4-2.1l0.1-0.4
				c0.1-0.7,0.2-1.3,0.2-1.8c0-0.6-0.1-1.2-0.2-1.8l-0.1-0.4l3.4-2.1c-0.3-1-0.7-2-1.2-2.9l-3.9,0.9l-0.2-0.3
				c-0.7-1-1.6-1.9-2.6-2.6l-0.3-0.2l0.9-3.9c-0.9-0.5-1.9-0.9-2.9-1.2l-2.1,3.4l-0.4-0.1c-1.2-0.2-2.4-0.2-3.6,0l-0.4,0.1l-2.1-3.4
				c-0.1,0-0.3,0.1-0.4,0.1c-0.3,0.1-0.6-0.1-0.7-0.3l0,0c-0.1-0.3,0-0.6,0.3-0.7c0.3-0.1,0.6-0.2,0.9-0.3l0.4-0.1l2.1,3.5
				c1.2-0.2,2.1-0.2,3.3,0l2.1-3.5l0.4,0.1c1.4,0.4,2.7,0.9,3.9,1.6l0.4,0.2l-0.9,4c0.9,0.7,1.6,1.4,2.3,2.3l4-0.9l0.2,0.4
				c0.7,1.2,1.3,2.6,1.6,3.9l0.1,0.4l-3.5,2.1c0.1,0.6,0.1,1.1,0.1,1.6c0,0.5,0,1-0.1,1.6l3.5,2.1l-0.1,0.4
				c-0.4,1.4-0.9,2.7-1.6,3.9L132,243.1z M118,240.2c-2.9-0.1-5.3-2.5-5.4-5.4c-0.1-2.9,2.1-5.3,4.9-5.7c0.3,0,0.6,0.2,0.6,0.6l0,0
				c0,0.3-0.2,0.5-0.5,0.6c-2.5,0.3-4.3,2.6-3.8,5.3c0.3,1.7,1.7,3.1,3.4,3.4c2.8,0.5,5.3-1.6,5.3-4.3c0-0.9-0.3-1.8-0.8-2.5
				c-0.2-0.2-0.1-0.6,0.1-0.7l0,0c0.3-0.2,0.7-0.2,0.8,0.1c0.6,0.9,1,2,1,3.2C123.7,237.7,121.1,240.2,118,240.2z"/>
		</g>
	</g>
	<ellipse id="_x3C_Path_x3E__359_" class="st1" cx="263.6" cy="436.5" rx="193.9" ry="11.3"/>
	<g>
		<path class="st5" d="M377.1,166.6h-32.6l-23,263.2H354c9.3,0,17.5-7.5,18.3-16.8l20.1-229.7C393.2,174.1,386.3,166.6,377.1,166.6z
			"/>
		<path class="st5" d="M370.4,166.6H260.2c-9.3,0-17.5,7.5-18.3,16.8L221.9,413c-0.8,9.3,6.1,16.8,15.3,16.8h110.2
			c9.3,0,17.5-7.5,18.3-16.8l20.1-229.7C386.6,174.1,379.7,166.6,370.4,166.6z"/>
		<path class="st6" d="M370.4,166.6H260.2c-9.3,0-17.5,7.5-18.3,16.8L221.9,413c-0.8,9.3,6.1,16.8,15.3,16.8h110.2
			c9.3,0,17.5-7.5,18.3-16.8l20.1-229.7C386.6,174.1,379.7,166.6,370.4,166.6z"/>
		<path class="st7" d="M370,172h-29.1c-1.7,0-3.3,1.1-4,2.8l0,0c-2.3,6.1-8.3,10.2-14.6,10.2h-17.2c-6.3,0-11.6-4.2-12.8-10.2v0
			c-0.3-1.6-1.8-2.8-3.5-2.8h-29.1c-6.3,0-11.9,5.1-12.4,11.4L227.3,413c-0.6,6.3,4.1,11.4,10.4,11.4h110.2
			c6.3,0,11.9-5.1,12.4-11.4l20.1-229.7C380.9,177.1,376.3,172,370,172z"/>
		<path class="st8" d="M342.5,296.7h-77.1c-2.3,0-4-1.9-3.8-4.1l0.4-4.4c0.2-2.3,2.2-4.1,4.5-4.1h77.1c2.3,0,4,1.9,3.8,4.1l-0.4,4.4
			C346.8,294.9,344.8,296.7,342.5,296.7z"/>
		<path class="st8" d="M340.8,315.8h-77.1c-2.3,0-4-1.9-3.8-4.1l0.4-4.4c0.2-2.3,2.2-4.1,4.5-4.1h77.1c2.3,0,4,1.9,3.8,4.1l-0.4,4.4
			C345.1,313.9,343.1,315.8,340.8,315.8z"/>
		<path class="st9" d="M319.1,176.3c-0.2,2.5-2.5,4.6-5,4.6s-4.4-2.1-4.2-4.6c0.2-2.5,2.5-4.6,5-4.6
			C317.4,171.7,319.3,173.7,319.1,176.3z"/>
		<path class="st9" d="M317,176.3c-0.1,1.4-1.3,2.5-2.7,2.5c-1.4,0-2.4-1.1-2.3-2.5c0.1-1.4,1.3-2.5,2.7-2.5
			C316.1,173.8,317.1,174.9,317,176.3z"/>
		<g>
			<g class="st10">
				<path class="st8" d="M356.4,183.9L356.4,183.9c-0.7,0-1.3-0.6-1.2-1.3l0.2-2.5c0.1-0.7,0.7-1.3,1.5-1.3l0,0
					c0.7,0,1.3,0.6,1.2,1.3l-0.2,2.5C357.8,183.3,357.1,183.9,356.4,183.9z"/>
				<path class="st8" d="M367.1,183.9L367.1,183.9c-0.7,0-1.3-0.6-1.2-1.3l0.5-5.8c0.1-0.7,0.7-1.3,1.5-1.3l0,0
					c0.7,0,1.3,0.6,1.2,1.3l-0.5,5.8C368.5,183.3,367.9,183.9,367.1,183.9z"/>
				<path class="st8" d="M361.8,183.9L361.8,183.9c-0.7,0-1.3-0.6-1.2-1.3l0.4-4.1c0.1-0.7,0.7-1.3,1.5-1.3l0,0
					c0.7,0,1.3,0.6,1.2,1.3l-0.4,4.1C363.2,183.3,362.5,183.9,361.8,183.9z"/>
			</g>
			<g class="st10">
				<path class="st8" d="M264.3,183.9h-6.8c-0.4,0-0.7-0.3-0.7-0.8l0.3-3.6c0-0.4,0.4-0.8,0.8-0.8h6.8c0.4,0,0.7,0.3,0.7,0.8
					l-0.3,3.6C265,183.6,264.7,183.9,264.3,183.9z"/>
				<path class="st8" d="M267.4,182.9L267.4,182.9c-0.4,0-0.7-0.3-0.7-0.8l0.1-1.7c0-0.4,0.4-0.8,0.8-0.8l0,0c0.4,0,0.7,0.3,0.7,0.8
					l-0.1,1.7C268.2,182.6,267.8,182.9,267.4,182.9z"/>
			</g>
		</g>
		
			<ellipse transform="matrix(0.7224 -0.6915 0.6915 0.7224 -84.0637 281.394)" class="st8" cx="308.4" cy="245.4" rx="33.7" ry="30.9"/>
		<g>
			<path class="st5" d="M308.5,244.1c-8.5,0-15.6,3.2-16.3,10.2l-0.7,7.8h30.7l0.7-7.8C323.6,247.4,317,244.1,308.5,244.1z"/>
			<path class="st5" d="M308.8,240.9c3.9,0,5.8-3.2,6.1-7.1c0.3-3.9-0.9-7.1-4.9-7.1c-3.9,0-5.8,3.2-6.1,7.1
				C303.6,237.7,304.9,240.9,308.8,240.9z"/>
		</g>
		<g>
			<path class="st5" d="M339,290.1c-2.1,0-3.9,0.8-4,2.5l-0.2,1.9h7.6l0.2-1.9C342.7,290.9,341.1,290.1,339,290.1z"/>
			<path class="st5" d="M339.1,289.4c1,0,1.4-0.8,1.5-1.8c0.1-1-0.2-1.8-1.2-1.8c-1,0-1.4,0.8-1.5,1.8
				C337.8,288.6,338.1,289.4,339.1,289.4z"/>
		</g>
		<path class="st5" d="M315.6,334.8h-30c-3.5,0-6.1-2.8-5.8-6.3v0c0.3-3.5,3.4-6.3,6.9-6.3h30c3.5,0,6.1,2.8,5.8,6.3v0
			C322.2,332,319.1,334.8,315.6,334.8z"/>
		<path class="st5" d="M312,405.6h-32.1c-3.7,0-6.4-3-6.1-6.7l2-23.4c0.3-3.7,3.6-6.7,7.3-6.7h32.1c3.7,0,6.4,3,6.1,6.7l-2,23.4
			C319,402.6,315.7,405.6,312,405.6z"/>
		<g class="st11">
			<path class="st8" d="M302.1,381.4c0.2-2.2-1.5-4-3.7-4c-2.2,0-4.2,1.8-4.4,4c-0.1,1.3,0.4,2.5,1.4,3.2l-0.7,8.1
				c-0.1,1.3,0.9,2.4,2.2,2.4c1.3,0,2.5-1.1,2.6-2.4l0.7-8.1C301.2,383.9,302,382.7,302.1,381.4z"/>
		</g>
		<g>
			<path class="st5" d="M315.5,373.6h-4.1l1-11.6c0.6-7-4.6-12.6-11.5-12.6s-13.1,5.7-13.7,12.6l-1,11.6H282l1-11.6
				c0.8-9.2,9-16.8,18.2-16.8s16.1,7.5,15.3,16.8L315.5,373.6z"/>
		</g>
		<path class="st5" d="M339.5,307.9l0.1-1.1c0.1-1.1-0.7-2.1-1.9-2.1c-1.1,0-2.1,0.9-2.2,2.1l-0.1,1.1c-0.5,0-0.9,0.4-0.9,0.8
			l-0.3,3c0,0.5,0.3,0.8,0.8,0.8h4.1c0.5,0,0.9-0.4,0.9-0.8l0.3-3C340.3,308.3,339.9,307.9,339.5,307.9z M337.7,305.2
			c0.9,0,1.5,0.7,1.4,1.6l-0.1,1.1h-3.1l0.1-1.1C336,305.9,336.8,305.2,337.7,305.2z"/>
		<g>
			<path class="st12" d="M277.5,309.1l-1.4-0.3c-0.2,0-0.3-0.2-0.2-0.4l0.6-1.4c0.1-0.3-0.2-0.5-0.5-0.3l-1.1,1.1
				c-0.1,0.1-0.3,0.1-0.4,0l-0.9-1.1c-0.2-0.2-0.6,0-0.5,0.3l0.4,1.4c0,0.2-0.1,0.3-0.3,0.4l-1.5,0.3c-0.3,0.1-0.4,0.5-0.1,0.6
				l1.4,0.3c0.2,0,0.3,0.2,0.2,0.4l-0.6,1.4c-0.1,0.3,0.2,0.5,0.5,0.3l1.1-1.1c0.1-0.1,0.3-0.1,0.4,0l0.9,1.1c0.2,0.2,0.6,0,0.5-0.3
				l-0.4-1.4c0-0.2,0.1-0.3,0.3-0.4l1.5-0.3C277.7,309.6,277.8,309.1,277.5,309.1z"/>
			<path class="st12" d="M286.9,309.1l-1.4-0.3c-0.2,0-0.3-0.2-0.2-0.4l0.6-1.4c0.1-0.3-0.2-0.5-0.5-0.3l-1.1,1.1
				c-0.1,0.1-0.3,0.1-0.4,0l-0.9-1.1c-0.2-0.2-0.6,0-0.5,0.3l0.4,1.4c0,0.2-0.1,0.3-0.3,0.4l-1.5,0.3c-0.3,0.1-0.4,0.5-0.1,0.6
				l1.4,0.3c0.2,0,0.3,0.2,0.2,0.4l-0.6,1.4c-0.1,0.3,0.2,0.5,0.5,0.3l1.1-1.1c0.1-0.1,0.3-0.1,0.4,0l0.9,1.1c0.2,0.2,0.6,0,0.5-0.3
				l-0.4-1.4c0-0.2,0.1-0.3,0.3-0.4l1.5-0.3C287.2,309.6,287.2,309.1,286.9,309.1z"/>
			<path class="st12" d="M296.4,309.1l-1.4-0.3c-0.2,0-0.3-0.2-0.2-0.4l0.6-1.4c0.1-0.3-0.2-0.5-0.5-0.3l-1.1,1.1
				c-0.1,0.1-0.3,0.1-0.4,0l-0.9-1.1c-0.2-0.2-0.6,0-0.5,0.3l0.4,1.4c0,0.2-0.1,0.3-0.3,0.4l-1.5,0.3c-0.3,0.1-0.4,0.5-0.1,0.6
				l1.4,0.3c0.2,0,0.3,0.2,0.2,0.4l-0.6,1.4c-0.1,0.3,0.2,0.5,0.5,0.3l1.1-1.1c0.1-0.1,0.3-0.1,0.4,0l0.9,1.1c0.2,0.2,0.6,0,0.5-0.3
				l-0.4-1.4c0-0.2,0.1-0.3,0.3-0.4l1.5-0.3C296.7,309.6,296.7,309.1,296.4,309.1z"/>
			<path class="st12" d="M305.9,309.1l-1.4-0.3c-0.2,0-0.3-0.2-0.2-0.4l0.6-1.4c0.1-0.3-0.2-0.5-0.5-0.3l-1.1,1.1
				c-0.1,0.1-0.3,0.1-0.4,0l-0.9-1.1c-0.2-0.2-0.6,0-0.5,0.3l0.4,1.4c0,0.2-0.1,0.3-0.3,0.4l-1.5,0.3c-0.3,0.1-0.4,0.5-0.1,0.6
				l1.4,0.3c0.2,0,0.3,0.2,0.2,0.4l-0.6,1.4c-0.1,0.3,0.2,0.5,0.5,0.3l1.1-1.1c0.1-0.1,0.3-0.1,0.4,0l0.9,1.1c0.2,0.2,0.6,0,0.5-0.3
				l-0.4-1.4c0-0.2,0.1-0.3,0.3-0.4l1.5-0.3C306.1,309.6,306.2,309.1,305.9,309.1z"/>
			<path class="st12" d="M315.3,309.1l-1.4-0.3c-0.2,0-0.3-0.2-0.2-0.4l0.6-1.4c0.1-0.3-0.2-0.5-0.5-0.3l-1.1,1.1
				c-0.1,0.1-0.3,0.1-0.4,0l-0.9-1.1c-0.2-0.2-0.6,0-0.5,0.3l0.4,1.4c0,0.2-0.1,0.3-0.3,0.4l-1.5,0.3c-0.3,0.1-0.4,0.5-0.1,0.6
				l1.4,0.3c0.2,0,0.3,0.2,0.2,0.4l-0.6,1.4c-0.1,0.3,0.2,0.5,0.5,0.3l1.1-1.1c0.1-0.1,0.3-0.1,0.4,0l0.9,1.1c0.2,0.2,0.6,0,0.5-0.3
				l-0.4-1.4c0-0.2,0.1-0.3,0.3-0.4l1.5-0.3C315.6,309.6,315.6,309.1,315.3,309.1z"/>
			<path class="st12" d="M324.8,309.1l-1.4-0.3c-0.2,0-0.3-0.2-0.2-0.4l0.6-1.4c0.1-0.3-0.2-0.5-0.5-0.3l-1.1,1.1
				c-0.1,0.1-0.3,0.1-0.4,0l-0.9-1.1c-0.2-0.2-0.6,0-0.5,0.3l0.4,1.4c0,0.2-0.1,0.3-0.3,0.4l-1.5,0.3c-0.3,0.1-0.4,0.5-0.1,0.6
				l1.4,0.3c0.2,0,0.3,0.2,0.2,0.4l-0.6,1.4c-0.1,0.3,0.2,0.5,0.5,0.3l1.1-1.1c0.1-0.1,0.3-0.1,0.4,0l0.9,1.1c0.2,0.2,0.6,0,0.5-0.3
				l-0.4-1.4c0-0.2,0.1-0.3,0.3-0.4l1.5-0.3C325.1,309.6,325.1,309.1,324.8,309.1z"/>
		</g>
		<g>
			<path class="st12" d="M302,288.4h-17.8c-1.1,0-2.1,0.9-2.2,2c-0.1,1.1,0.7,2,1.8,2h17.8c1.1,0,2.1-0.9,2.2-2
				C303.9,289.3,303.1,288.4,302,288.4z"/>
			<path class="st12" d="M320,288.4h-10.3c-1.1,0-2.1,0.9-2.2,2c-0.1,1.1,0.7,2,1.8,2h10.3c1.1,0,2.1-0.9,2.2-2
				C321.9,289.3,321.1,288.4,320,288.4z"/>
		</g>
		<path class="st12" d="M333.6,379c-6.7,2.7-12.6,6.6-16.6,11c-2.4-2-5.7-3.4-9.7-4l-0.5-0.1l-0.2,2.4l0.3,0.1
			c4,1.5,7.2,4.2,9.3,7.7l0.3,0.6l0.4-0.6c4.1-6.6,10.1-12.1,16.9-15.6l0.2-0.1l0.1-1.6L333.6,379z"/>
	</g>
	<path class="st13" d="M244.3,182.1c-1.2,2.2-2.1,4.6-2.3,7.2l-14.9,170.2h46.1l9.3-35.5l-3-35.5l9.3-35.5l-3-35.5l9.3-35.5H244.3z"
		/>
	<g>
		<g>
			<polygon class="st5" points="281.6,207.6 290.8,172.1 174.3,172.1 165,207.6 168.1,243.1 158.8,278.6 161.9,314.1 152.6,349.6 
				269.1,349.6 278.4,314.1 275.4,278.6 284.6,243.1 			"/>
			<polygon class="st14" points="281.6,207.6 290.8,172.1 174.3,172.1 165,207.6 168.1,243.1 158.8,278.6 161.9,314.1 152.6,349.6 
				269.1,349.6 278.4,314.1 275.4,278.6 284.6,243.1 			"/>
			<polygon class="st15" points="281.6,207.6 165,207.6 174.3,172.1 290.8,172.1 			"/>
			<polygon class="st15" points="275.4,278.6 158.8,278.6 168.1,243.1 284.6,243.1 			"/>
			<polygon class="st15" points="269.1,349.6 152.6,349.6 161.9,314.1 278.4,314.1 			"/>
		</g>
		<path class="st13" d="M266,222.5c-1,0.3-2.3,0.5-3.7,0.5c-2.1,0-3.9-0.4-4.9-1c-0.3-0.2-0.6-0.3-0.9-0.3l0,0
			c-0.3,0-0.6,0.1-0.8,0.2c0,0,0,0-0.1,0h0l0,0c0,0,0,0,0,0c-0.4,0.2-0.9,0.4-1.4,0.6c-1,0.3-2.1,0.4-3.4,0.4c-0.3,0-0.7,0-1,0
			c-1-0.1-1.9-0.2-2.7-0.5c-0.1,0-0.3-0.1-0.4-0.1c-0.9-0.1-1.7,0.6-1.7,1.6v0v1.1h-45.3c-3.5,0-6.3,2.8-6.3,6.3v6.4
			c0,3.5,2.8,6.3,6.3,6.3h51.5c0.1,0,0.2,0,0.3,0c0.6,0.5,1.1,0.9,1.7,1.4c0.7,0.6,1.5,1.1,2.3,1.7c0.6,0.4,1.3,0.4,1.9,0
			c6.5-4.7,10.6-7.9,10.6-16.8V224C268.1,222.9,267,222.1,266,222.5z"/>
		<g>
			<path class="st5" d="M250.2,240.6h-51.5c-3.5,0-6.3-2.8-6.3-6.3v-6.4c0-3.5,2.8-6.3,6.3-6.3h51.5c3.5,0,6.3,2.8,6.3,6.3v6.4
				C256.5,237.8,253.7,240.6,250.2,240.6z"/>
			<g>
				<g>
					<path class="st5" d="M261.3,219.4c-2.1,0-3.9-0.4-4.9-1c-0.6-0.3-1.2-0.3-1.8,0c-1,0.6-2.8,1-4.9,1c-1.4,0-2.7-0.2-3.7-0.5
						c-1-0.3-2.1,0.4-2.1,1.5v6.4c0,8.9,4.2,12.1,10.6,16.8c0.6,0.4,1.3,0.4,1.9,0c6.5-4.7,10.6-7.9,10.6-16.8v-6.4
						c0-1.1-1.1-1.9-2.1-1.5C264,219.3,262.7,219.4,261.3,219.4z"/>
					<path class="st6" d="M261.3,219.4c-2.1,0-3.9-0.4-4.9-1c-0.6-0.3-1.2-0.3-1.8,0c-1,0.6-2.8,1-4.9,1c-1.4,0-2.7-0.2-3.7-0.5
						c-1-0.3-2.1,0.4-2.1,1.5v6.4c0,8.9,4.2,12.1,10.6,16.8c0.6,0.4,1.3,0.4,1.9,0c6.5-4.7,10.6-7.9,10.6-16.8v-6.4
						c0-1.1-1.1-1.9-2.1-1.5C264,219.3,262.7,219.4,261.3,219.4z"/>
					<path class="st16" d="M254.6,218.4c-1,0.6-2.8,1-4.9,1c-1.4,0-2.7-0.2-3.7-0.5c-1-0.3-2.1,0.4-2.1,1.5v6.4
						c0,8.9,4.2,12.1,10.6,16.8c0.3,0.2,0.6,0.3,1,0.3v-25.9C255.2,218.2,254.9,218.2,254.6,218.4z"/>
				</g>
				<path class="st12" d="M264.8,225.1c-4.2,1.7-7.8,4.3-10.1,7.1c-1.6-1.3-3.9-2.2-6.5-2.6l-0.3,0v1.5l0.2,0.1c2.7,1,4.9,2.7,6.5,5
					l0.2,0.4l0.2-0.4c2.3-4.3,5.9-7.9,10.1-10.1l0.1-0.1v-1L264.8,225.1z"/>
			</g>
		</g>
		<g>
			<path class="st5" d="M288.8,182.1h-4.4c-2.5,0-4.3-2-4.1-4.4l0.4-4.4c0.2-2.5,2.4-4.4,4.8-4.4h4.4c2.5,0,4.3,2,4.1,4.4l-0.4,4.4
				C293.4,180.1,291.2,182.1,288.8,182.1z"/>
			<polygon class="st8" points="290.6,173.2 289.6,172.2 287.2,174.4 285.2,172.2 284.1,173.2 286.1,175.5 283.7,177.7 284.6,178.7 
				287,176.5 289.1,178.7 290.2,177.7 288.2,175.5 			"/>
		</g>
	</g>
	<g>
		<g>
			<path class="st17" d="M183,221c2.6,2.8,5,5.7,7.4,8.6c2.4,2.9,4.8,5.9,7.1,8.9c0.1,0.1,0.1,0.1,0.1,0.1c0,0,0,0,0,0.1
				c0,0,0,0.1,0.1,0.1c0,0.1,0.1,0.1,0.2,0.2c0.1,0.1,0.3,0.2,0.6,0.3c0.1,0,0.2,0,0.3,0c0.1,0,0.1,0,0.2,0c0,0,0.1,0,0.1,0
				c0.1,0,0,0,0.2-0.1l2.5-1.4c3.4-1.8,6.7-3.5,10.3-5.1l2.9,3.6c-2.8,2.6-5.8,5.8-8.7,8.2l-2.2,1.8c-0.1,0.1-0.3,0.2-0.4,0.3
				c-0.2,0.1-0.3,0.2-0.5,0.3c-0.4,0.2-0.7,0.4-1.1,0.6c-0.8,0.3-1.6,0.5-2.4,0.7c-1.7,0.2-3.4,0.1-5-0.5c-0.8-0.3-1.6-0.7-2.3-1.2
				c-0.4-0.2-0.7-0.5-1-0.8c-0.2-0.1-0.3-0.3-0.5-0.4l-0.4-0.4c-2.6-2.7-5.3-5.5-7.8-8.2c-2.6-2.8-5.1-5.6-7.5-8.5L183,221z"/>
			<path class="st17" d="M210.6,234.9l2.3-7.5l6.1,3.1c0,0-0.9,5.5-5.4,6.4L210.6,234.9z"/>
			<polygon class="st17" points="215.4,225.4 221,226.9 219.1,230.5 213,227.4 			"/>
		</g>
		<g>
			<path class="st17" d="M150.7,223.1c-0.7,3.2-1.5,6.3-2.3,9.5c-0.9,3.1-1.8,6.3-2.7,9.4l-0.4,1.2l-0.2,0.6c0,0.1-0.1,0.2-0.1,0.2
				c-0.1,0.3-0.2,0.6-0.2,1c0,0.7,0.1,1.4,0.6,2.1c0,0.1,0.4,0.5,0.6,0.8l0.8,0.9l1.6,1.8c1.1,1.2,2.2,2.5,3.2,3.8l-3.5,4
				c-1.4-0.8-2.8-1.7-4.2-2.6l-2.1-1.4l-1-0.7c-0.3-0.2-0.6-0.4-1.2-0.9c-1.9-1.6-3.3-3.9-3.8-6.4c-0.3-1.3-0.3-2.6-0.2-3.9
				c0-0.3,0.1-0.7,0.1-0.9l0.1-0.6l0.2-1.2c0.6-3.2,1.2-6.4,1.8-9.6c0.7-3.2,1.4-6.4,2.2-9.5L150.7,223.1z"/>
			<path class="st17" d="M148.3,253.9l4.1-2.1l1.8,7c0,0-3.3,1.3-5.9-0.4L148.3,253.9z"/>
			<polygon class="st17" points="158.1,249.5 158.3,256 153.7,259 152.1,251.9 			"/>
		</g>
		<path class="st12" d="M171.6,190c0.1,0.5,0.4,0.8,0.8,0.8c0.3-0.1,0.5-0.5,0.4-1c-0.1-0.5-0.4-0.8-0.8-0.8
			C171.7,189.1,171.5,189.5,171.6,190z"/>
		<path class="st17" d="M172,190.9c0,0,1.7,2.6,3.2,3.8c-0.7,1-2.3,0.9-2.3,0.9L172,190.9z"/>
		<path class="st12" d="M169.2,187.6c-0.1,0-0.1,0-0.2-0.1c-0.1-0.1-0.1-0.3,0-0.4c1.1-1.2,2.5-1,2.5-1c0.2,0,0.3,0.2,0.2,0.3
			c0,0.2-0.2,0.3-0.3,0.2l0,0c0,0-1.1-0.2-2,0.8C169.4,187.6,169.3,187.6,169.2,187.6z"/>
		<path class="st17" d="M157.2,197c1.1,4.6,2.2,13-1.7,16.1c0,0,1.5,4.7,12,4.7c11.5,0,5.5-3,5.5-3c-6.3-1.2-6.1-6.7-5-10.2
			L157.2,197z"/>
		<path class="st5" d="M154.2,213.9c-0.7-1.3-1.4-2.7,0.1-3.2c1.7-0.5,12.7-1.4,16-0.5c-1,1.8,0.7,3.9,0.7,3.9L154.2,213.9z"/>
		<polygon class="st17" points="163.3,428.5 170.6,428.5 171.3,413.9 164.1,413.9 		"/>
		<polygon class="st17" points="117.6,426.5 124.9,426.8 129.3,412.5 122,412.1 		"/>
		<path class="st12" d="M124.6,426.3l-6.9-1.5c-0.3-0.1-0.5,0.1-0.6,0.3l-2.4,5.2c-0.2,0.5,0.1,1.2,0.7,1.3c2.4,0.5,3.6,0.6,6.6,1.2
			c1.9,0.4,6.1,1.4,8.6,2c2.5,0.5,3.5-1.9,2.5-2.4c-4.5-2.1-6.4-3.9-7.6-5.6C125.3,426.6,125,426.3,124.6,426.3z"/>
		<path class="st12" d="M170.2,427.7h-6.8c-0.3,0-0.5,0.2-0.5,0.4l-1.2,5.6c-0.1,0.6,0.3,1.1,0.9,1.1c2.5,0,6-0.2,9.1-0.2
			c3.6,0,6.8,0.2,11,0.2c2.6,0,3.3-2.6,2.2-2.8c-4.9-1.1-8.9-1.2-13.1-3.8C171.2,427.9,170.7,427.7,170.2,427.7z"/>
		<path class="st5" d="M142.4,215.1c-5.4,2.6-6.9,18.3-6.9,18.3l13.5,6.2c0,0,3.3-4.9,3.6-12.7C152.8,218.9,147.9,212.5,142.4,215.1
			z"/>
		<path class="st18" d="M149.7,224.8c-2.4,3.8-2.2,9.6-1.4,14.6l0.6,0.3c0,0,3.3-4.9,3.6-12.7c0-0.5,0-1,0-1.4L149.7,224.8z"/>
		<g>
			<path class="st5" d="M180,214.8c0,0,6.7,7.5,0.4,54.2c-10.1,0-28.6,0-33.5,0c-0.2-5.1,3-30.3-2-54.5c0,0,5.7-1.2,11.2-1.4
				c4.3-0.2,10.5-0.3,14.3,0C175.3,213.5,180,214.8,180,214.8z"/>
			<path class="st19" d="M180,214.8c0,0,6.7,7.5,0.4,54.2c-10.1,0-28.6,0-33.5,0c-0.2-5.1,3-30.3-2-54.5c0,0,5.7-1.2,11.2-1.4
				c4.3-0.2,10.5-0.3,14.3,0C175.3,213.5,180,214.8,180,214.8z"/>
		</g>
		<g class="st18">
			<path d="M180,214.8c0,0,6.7,7.5,0.4,54.2c-10.1,0-28.6,0-33.5,0c-0.2-5.1,3-30.3-2-54.5c0,0,5.7-1.2,11.2-1.4
				c4.3-0.2,10.5-0.3,14.3,0C175.3,213.5,180,214.8,180,214.8z"/>
			<path class="st11" d="M180,214.8c0,0,6.7,7.5,0.4,54.2c-10.1,0-28.6,0-33.5,0c-0.2-5.1,3-30.3-2-54.5c0,0,5.7-1.2,11.2-1.4
				c4.3-0.2,10.5-0.3,14.3,0C175.3,213.5,180,214.8,180,214.8z"/>
		</g>
		<path class="st13" d="M182.9,229l-0.1-0.1l-6.7-3.6c-0.7,10.3,3.9,16.7,6.6,19.5C183.1,238.3,183.1,233.1,182.9,229z"/>
		<polygon class="st13" points="171.3,413.9 170.9,421.4 163.7,421.4 164.1,413.9 		"/>
		<polygon class="st13" points="122,412.2 129.3,412.5 127,419.9 119.7,419.5 		"/>
		<path class="st17" d="M154.8,192.3c1.6,6,2.2,9.6,6,12.1c5.6,3.8,12.5-0.6,12.7-6.9c0.2-5.7-2.5-14.6-8.9-15.8
			C158.3,180.5,153.2,186.3,154.8,192.3z"/>
		<path class="st5" d="M168.4,269c0,0-7.1,47.9-11,65.9c-4.3,19.7-27.2,84.7-27.2,84.7l-11.2-2.4c0,0,14.4-53,18-80.5
			c1.4-10.7,3.1-28,5.2-42.4c2.1-14,4.6-25.2,4.6-25.2H168.4z"/>
		<path class="st5" d="M132.9,415.8c0,0-2.1,4.1-2.1,4.1l-12.6-2.7l1.1-3.8L132.9,415.8z"/>
		<path class="st20" d="M132.9,415.8c0,0-2.1,4.1-2.1,4.1l-12.6-2.7l1.1-3.8L132.9,415.8z"/>
		<path class="st5" d="M163.9,286c-8.2,1.6-7.4,32.3-6.4,48.1c2.4-11.2,5.8-32.6,8.2-47.9C165.2,286,164.6,285.9,163.9,286z"/>
		<path class="st5" d="M180.3,269c0,0,3.3,46.9,2.7,66c-0.7,19.9-10.1,85-10.1,85h-10.6c0,0-0.4-64-0.9-83.5
			c-0.5-21.3-3.1-67.5-3.1-67.5H180.3z"/>
		<path class="st5" d="M174.9,415.7c0,0-0.6,4.4-0.6,4.4h-12.9l-0.3-3.9L174.9,415.7z"/>
		<path class="st20" d="M174.9,415.7c0,0-0.6,4.4-0.6,4.4h-12.9l-0.3-3.9L174.9,415.7z"/>
		<path class="st5" d="M176,223.6c0,12.6,6.7,17.8,6.7,17.8l10.9-10.6c0,0-3.7-6.4-8.8-12.2C178.6,211.2,176,215.5,176,223.6z"/>
		<path class="st13" d="M173.2,199.8c-0.3,0.8-1,2.1-2.8,2.6c-2.7,0.8-2.7,3-2.7,3l0,0C170.2,204.6,172.3,202.5,173.2,199.8z"/>
		<path class="st12" d="M170.3,180.4c2.2-2.8-1.2-3-1.2-3c0.9-3.4-3.1-1.6-3.1-1.6c-2.4-3.3-3.8,0.7-3.8,0.7c-2.5-2.8-3,1.8-3,1.8
			c-2.5-3.6-3.8,1.6-3.8,1.6c-2.3-3.7-3.7,1.1-3.7,1.1c-4.8-1.7-2.5,3.3-2.5,3.3c-4.1,0.1-0.8,3.3-0.8,3.3c-4.9,0-0.6,2.8-0.6,2.8
			c-3.9,2.6,1,3.2,1,3.2c-3.2,5,2.3,3.1,2.3,3.1c-2.2,4.9,2.7,2.7,2.7,2.7c-0.3,4.7,2.4,3.4,3.7,2.6c0.3,1,0.7,2,1.6,2.1
			c1.7,0.2,2-3,2-3s1.6,1.2,2.9,0.6c1.3-0.7,0.8-2.4,0.8-2.4s1,0.8,1.9,0c0.6-0.4,0.6-3.6-0.2-4.7l2.6-1c0,0,1.9-0.3,1.1-2.8
			c-0.9-2.5-0.1-4.6-0.1-4.6c2.9-1.4,0.5-3,0.5-3C174.1,181.1,170.3,180.4,170.3,180.4z"/>
		<path class="st17" d="M165.1,192.6c0.4,1.6,1.4,2.9,2.5,3.7c1.6,1.2,2.9,0,2.7-1.8c-0.1-1.7-1.1-4.3-2.9-4.8
			C165.7,189.2,164.6,190.8,165.1,192.6z"/>
	</g>
</g>
</svg>
